<svg id="Layer_1" data-name="Layer 1" xmlns="http://www.w3.org/2000/svg" viewBox="0 0 254.63 99.07"><defs><style>.cls-1{fill:#fff;}</style></defs><title>white_wordmark</title><path class="cls-1" d="M62.55,37.41H86.42l-2.31,4.33H76.94V62.9H72V41.74H64.86Zm116,9.14,4.73,6.35V37.41h-4.73ZM3.72,62.9H8.6V37.41H3.72ZM249.13,50.12a12.76,12.76,0,0,1-1.79,6.64,13,13,0,0,1-4.89,4.75,14.48,14.48,0,0,1-13.8,0,12.93,12.93,0,0,1-4.9-4.75,12.9,12.9,0,0,1,4.9-18,14.78,14.78,0,0,1,13.8,0,12.76,12.76,0,0,1,6.68,11.33Zm-5,0A8.54,8.54,0,0,0,243,45.73a8.34,8.34,0,0,0-3.11-3.13,8.26,8.26,0,0,0-4.26-1.15,8.48,8.48,0,0,0-4.33,1.15,8.36,8.36,0,0,0-3.17,3.13,8.77,8.77,0,0,0,0,8.79,8.73,8.73,0,0,0,3.16,3.17,8.36,8.36,0,0,0,4.32,1.16,8.17,8.17,0,0,0,4.26-1.16A8.52,8.52,0,0,0,243,54.52,8.63,8.63,0,0,0,244.14,50.12Zm-43,12.78h4.88V37.41h-4.88ZM165.38,37.41h-4.62V62.9h4.77V45.35L178.64,62.9h4.62V61.36L173.2,47.86ZM44.23,46.55,49,52.9V37.41H44.23ZM31.08,37.41H26.46V62.9h4.77V45.35L44.34,62.9H49V61.36L38.9,47.86Zm91.3,13.87a9.61,9.61,0,0,0,1.29-5.1A8.06,8.06,0,0,0,121,39.7q-2.7-2.3-7.65-2.29H99.47V62.9h4.88V41.69l3.23,0h5.75a6.7,6.7,0,0,1,4.23,1.16,4.22,4.22,0,0,1,1.45,3.5,4.36,4.36,0,0,1-1.45,3.57,6.52,6.52,0,0,1-4.23,1.2h-5.39l2.51,4.29h2.88c.41,0,.72,0,.91,0l4.41,7.54h5.57l-5.61-8.45A7.94,7.94,0,0,0,122.38,51.28ZM139,62.9h4.88V37.41H139Z"/></svg>